<svg xmlns="http://www.w3.org/2000/svg" viewBox="0 0 800 600" preserveAspectRatio="xMidYMid slice">
  <defs>
    <linearGradient id="b" gradientTransform="rotate(25 .5 .5)">
      <stop offset="0" stop-color="#081828"/><stop offset="1" stop-color="#12314f"/>
    </linearGradient>
    <radialGradient id="l1" cx="70%" cy="47%" r="55%">
      <stop offset="0" stop-color="#16b364" stop-opacity="0.55"/><stop offset="1" stop-color="#16b364" stop-opacity="0"/>
    </radialGradient>
    <radialGradient id="l2" cx="70%" cy="73%" r="50%">
      <stop offset="0" stop-color="#2c6f8f" stop-opacity="0.4"/><stop offset="1" stop-color="#2c6f8f" stop-opacity="0"/>
    </radialGradient>
    <filter id="n"><feTurbulence type="fractalNoise" baseFrequency="0.9" numOctaves="2" stitchTiles="stitch"/>
      <feColorMatrix type="saturate" values="0"/>
      <feComponentTransfer><feFuncA type="linear" slope="0.05"/></feComponentTransfer>
      <feComposite operator="over" in2="SourceGraphic"/></filter>
    <pattern id="grid" width="40" height="40" patternUnits="userSpaceOnUse" patternTransform="rotate(25)">
      <path d="M40 0H0V40" fill="none" stroke="#ffffff" stroke-opacity="0.05" stroke-width="1"/>
    </pattern>
  </defs>
  <rect width="800" height="600" fill="url(#b)"/>
  <rect width="800" height="600" fill="url(#grid)"/>
  <rect width="800" height="600" fill="url(#l1)"/>
  <rect width="800" height="600" fill="url(#l2)"/>
  <rect width="800" height="600" filter="url(#n)" opacity="0.55"/>
  <g transform="translate(400 300) rotate(5) translate(-132 -132) scale(11)"
     fill="none" stroke="#ffffff" stroke-opacity="0.17" stroke-width="1.4" stroke-linecap="round" stroke-linejoin="round"><path d="M2 18a1 1 0 0 0 1 1h18a1 1 0 0 0 1-1v-2a8 8 0 0 0-16 0Z"/><path d="M10 10V5a1 1 0 0 1 1-1h2a1 1 0 0 1 1 1v5M4 15v-3a6 6 0 0 1 6-6M20 15v-3a6 6 0 0 0-6-6"/></g>
  <rect x="0" y="595" width="800" height="5" fill="#16b364"/>
</svg>