<svg xmlns="http://www.w3.org/2000/svg" viewBox="0 0 800 600" preserveAspectRatio="xMidYMid slice">
  <defs>
    <linearGradient id="g" x1="0" y1="0" x2="1" y2="1">
      <stop offset="0" stop-color="#0f2b46"/><stop offset="1" stop-color="#087242"/>
    </linearGradient>
    <radialGradient id="glow" cx="0.82" cy="0.18" r="0.6">
      <stop offset="0" stop-color="#16b364" stop-opacity="0.35"/>
      <stop offset="1" stop-color="#16b364" stop-opacity="0"/>
    </radialGradient>
    <pattern id="dots" width="26" height="26" patternUnits="userSpaceOnUse">
      <circle cx="2" cy="2" r="1.4" fill="#ffffff" fill-opacity="0.06"/>
    </pattern>
  </defs>
  <rect width="800" height="600" fill="url(#g)"/>
  <rect width="800" height="600" fill="url(#dots)"/>
  <rect width="800" height="600" fill="url(#glow)"/>
  <g transform="translate(268,168) scale(11)" fill="none" stroke="#ffffff" stroke-opacity="0.16" stroke-width="1.5" stroke-linecap="round" stroke-linejoin="round"><path d="M4.8 2.3A.3.3 0 1 0 5 2H4a2 2 0 0 0-2 2v5a6 6 0 0 0 6 6 6 6 0 0 0 6-6V4a2 2 0 0 0-2-2h-1a.2.2 0 1 0 .3.3"/><path d="M8 15v1a6 6 0 0 0 6 6 6 6 0 0 0 6-6v-4"/><circle cx="20" cy="10" r="2"/></g>
  <rect x="0" y="596" width="800" height="4" fill="#16b364" fill-opacity="0.9"/>
</svg>