<svg xmlns="http://www.w3.org/2000/svg" viewBox="0 0 800 600" preserveAspectRatio="xMidYMid slice">
  <defs>
    <linearGradient id="b" gradientTransform="rotate(109 .5 .5)">
      <stop offset="0" stop-color="#081828"/><stop offset="1" stop-color="#0a8f4f"/>
    </linearGradient>
    <radialGradient id="l1" cx="76%" cy="65%" r="55%">
      <stop offset="0" stop-color="#2c6f8f" stop-opacity="0.55"/><stop offset="1" stop-color="#2c6f8f" stop-opacity="0"/>
    </radialGradient>
    <radialGradient id="l2" cx="33%" cy="72%" r="50%">
      <stop offset="0" stop-color="#1f5f8b" stop-opacity="0.4"/><stop offset="1" stop-color="#1f5f8b" stop-opacity="0"/>
    </radialGradient>
    <filter id="n"><feTurbulence type="fractalNoise" baseFrequency="0.9" numOctaves="2" stitchTiles="stitch"/>
      <feColorMatrix type="saturate" values="0"/>
      <feComponentTransfer><feFuncA type="linear" slope="0.05"/></feComponentTransfer>
      <feComposite operator="over" in2="SourceGraphic"/></filter>
    <pattern id="grid" width="40" height="40" patternUnits="userSpaceOnUse" patternTransform="rotate(109)">
      <path d="M40 0H0V40" fill="none" stroke="#ffffff" stroke-opacity="0.05" stroke-width="1"/>
    </pattern>
  </defs>
  <rect width="800" height="600" fill="url(#b)"/>
  <rect width="800" height="600" fill="url(#grid)"/>
  <rect width="800" height="600" fill="url(#l1)"/>
  <rect width="800" height="600" fill="url(#l2)"/>
  <rect width="800" height="600" filter="url(#n)" opacity="0.55"/>
  <g transform="translate(400 300) rotate(9) translate(-132 -132) scale(11)"
     fill="none" stroke="#ffffff" stroke-opacity="0.17" stroke-width="1.4" stroke-linecap="round" stroke-linejoin="round"><path d="M12 3v4M12 17v4M3 12h4M17 12h4M6 6l2.5 2.5M15.5 15.5 18 18M18 6l-2.5 2.5M8.5 15.5 6 18"/><circle cx="12" cy="12" r="3"/></g>
  <rect x="0" y="595" width="800" height="5" fill="#16b364"/>
</svg>