<svg xmlns="http://www.w3.org/2000/svg" viewBox="0 0 800 600" preserveAspectRatio="xMidYMid slice">
  <defs>
    <linearGradient id="b" gradientTransform="rotate(103 .5 .5)">
      <stop offset="0" stop-color="#081828"/><stop offset="1" stop-color="#12314f"/>
    </linearGradient>
    <radialGradient id="l1" cx="82%" cy="28%" r="55%">
      <stop offset="0" stop-color="#1f5f8b" stop-opacity="0.55"/><stop offset="1" stop-color="#1f5f8b" stop-opacity="0"/>
    </radialGradient>
    <radialGradient id="l2" cx="61%" cy="71%" r="50%">
      <stop offset="0" stop-color="#0a8f4f" stop-opacity="0.4"/><stop offset="1" stop-color="#0a8f4f" stop-opacity="0"/>
    </radialGradient>
    <filter id="n"><feTurbulence type="fractalNoise" baseFrequency="0.9" numOctaves="2" stitchTiles="stitch"/>
      <feColorMatrix type="saturate" values="0"/>
      <feComponentTransfer><feFuncA type="linear" slope="0.05"/></feComponentTransfer>
      <feComposite operator="over" in2="SourceGraphic"/></filter>
    <pattern id="grid" width="40" height="40" patternUnits="userSpaceOnUse" patternTransform="rotate(103)">
      <path d="M40 0H0V40" fill="none" stroke="#ffffff" stroke-opacity="0.05" stroke-width="1"/>
    </pattern>
  </defs>
  <rect width="800" height="600" fill="url(#b)"/>
  <rect width="800" height="600" fill="url(#grid)"/>
  <rect width="800" height="600" fill="url(#l1)"/>
  <rect width="800" height="600" fill="url(#l2)"/>
  <rect width="800" height="600" filter="url(#n)" opacity="0.55"/>
  <g transform="translate(400 300) rotate(-7) translate(-132 -132) scale(11)"
     fill="none" stroke="#ffffff" stroke-opacity="0.17" stroke-width="1.4" stroke-linecap="round" stroke-linejoin="round"><path d="M7 19H4.8a2 2 0 0 1-1.7-3l1.2-2M11 5l1.2-2a2 2 0 0 1 3.5 0L17 5M20 9l1.2 2a2 2 0 0 1-1.7 3H17M8 9l-2 2 3 1M16 15l2-2-3-1M9 19h4"/></g>
  <rect x="0" y="595" width="800" height="5" fill="#16b364"/>
</svg>